<?xml version="1.0" encoding="utf-8"?>
<!-- Generator: Adobe Illustrator 22.1.0, SVG Export Plug-In . SVG Version: 6.00 Build 0)  -->
<svg version="1.1" xmlns="http://www.w3.org/2000/svg" xmlns:xlink="http://www.w3.org/1999/xlink" x="0px" y="0px"
	 viewBox="0 0 438.9 369" style="enable-background:new 0 0 438.9 369;" xml:space="preserve">
<style type="text/css">
	.st0{opacity:0.6;}
	.st1{clip-path:url(#SVGID_22_);}
	.st2{opacity:0.6;fill:url(#SVGID_25_);}
	.st3{opacity:0.11;}
	.st4{clip-path:url(#SVGID_27_);}
	.st5{opacity:0.6;fill:url(#SVGID_30_);}
	.st6{clip-path:url(#SVGID_32_);}
	.st7{opacity:0.6;fill:url(#SVGID_35_);}
	.st8{clip-path:url(#SVGID_37_);}
	.st9{opacity:0.6;fill:url(#SVGID_40_);}
	.st10{clip-path:url(#SVGID_42_);}
	.st11{opacity:0.6;fill:url(#SVGID_45_);}
	.st12{clip-path:url(#SVGID_47_);}
	.st13{opacity:0.6;fill:url(#SVGID_50_);}
	.st14{clip-path:url(#SVGID_52_);}
	.st15{opacity:0.6;fill:url(#SVGID_55_);}
	.st16{clip-path:url(#SVGID_57_);}
	.st17{opacity:0.6;fill:url(#SVGID_60_);}
	.st18{clip-path:url(#SVGID_62_);}
	.st19{opacity:0.6;fill:url(#SVGID_65_);}
	.st20{clip-path:url(#SVGID_67_);}
	.st21{opacity:0.6;fill:url(#SVGID_70_);}
	.st22{clip-path:url(#SVGID_72_);}
	.st23{opacity:0.6;fill:url(#SVGID_75_);}
	.st24{clip-path:url(#SVGID_77_);}
	.st25{opacity:0.6;fill:url(#SVGID_80_);}
	.st26{clip-path:url(#SVGID_82_);}
	.st27{opacity:0.6;fill:url(#SVGID_85_);}
	.st28{clip-path:url(#SVGID_87_);}
	.st29{opacity:0.6;fill:url(#SVGID_90_);}
	.st30{clip-path:url(#SVGID_92_);}
	.st31{opacity:0.6;fill:url(#SVGID_95_);}
	.st32{clip-path:url(#SVGID_97_);}
	.st33{opacity:0.6;fill:url(#SVGID_100_);}
	.st34{clip-path:url(#SVGID_102_);}
	.st35{opacity:0.6;fill:url(#SVGID_105_);}
	.st36{fill:#FFFFFF;}
	.st37{fill:#008DD8;}
	.st38{fill:none;stroke:#FFFFFF;stroke-width:0.5;stroke-miterlimit:10;}
	.st39{fill:#FCFCFC;}
	.st40{fill:none;stroke:#939393;stroke-miterlimit:10;}
	.st41{fill:#F7F7F7;}
	.st42{fill-rule:evenodd;clip-rule:evenodd;fill:#FFFFFF;}
	.st43{fill:#FFFFFF;stroke:#FFFFFF;stroke-width:0.524;stroke-miterlimit:10;}
	.st44{fill:none;stroke:#FFFFFF;stroke-width:0.524;stroke-miterlimit:10;}
	.st45{fill:#555555;}
	.st46{fill:none;stroke:#555555;stroke-miterlimit:10;}
	.st47{fill:none;stroke:#FFFFFF;stroke-width:0.8285;stroke-linecap:square;stroke-miterlimit:10;}
	.st48{fill:none;stroke:#D3D3D3;stroke-miterlimit:10;}
	.st49{opacity:0.15;fill:#FFFFFF;}
	.st50{fill:none;stroke:#FFFFFF;stroke-linecap:round;stroke-miterlimit:10;}
	.st51{opacity:0.15;fill:#FCFCFC;}
	.st52{fill:none;stroke:#F2113D;stroke-miterlimit:10;}
	.st53{opacity:0.7;}
	.st54{fill:none;stroke:#FFFFFF;stroke-miterlimit:10;}
	.st55{fill:#444444;}
	.st56{fill:#F9F9F9;}
	.st57{opacity:0.5;}
	.st58{fill:#939393;}
	.st59{fill:none;stroke:#939393;stroke-width:0.5;stroke-miterlimit:10;}
	.st60{fill:#141414;}
	.st61{opacity:0.5;fill:#CECECE;}
	.st62{opacity:0.4;}
	.st63{opacity:0.32;}
	.st64{opacity:0.64;}
	.st65{fill:none;stroke:#CCCCCC;stroke-miterlimit:10;}
	.st66{opacity:0.6;clip-path:url(#SVGID_111_);fill:url(#SVGID_112_);}
	.st67{opacity:0.6;clip-path:url(#SVGID_118_);fill:url(#SVGID_119_);}
	.st68{fill:none;stroke:#FFFFFF;stroke-width:10;stroke-miterlimit:10;}
	.st69{fill:none;stroke:#FFFFFF;stroke-width:10;stroke-miterlimit:10;stroke-dasharray:12.0013,12.0013;}
	.st70{fill:none;stroke:#FFFFFF;stroke-width:10;stroke-miterlimit:10;stroke-dasharray:12.0584,12.0584;}
	.st71{fill:none;stroke:#FFFFFF;stroke-width:10;stroke-miterlimit:10;stroke-dasharray:9.0013,9.0013;}
	.st72{fill:none;stroke:#FFFFFF;stroke-width:10;stroke-miterlimit:10;stroke-dasharray:10.8372,10.8372;}
	.st73{fill:none;stroke:#FFFFFF;stroke-width:10;stroke-miterlimit:10;stroke-dasharray:12.0822,12.0822;}
	.st74{fill:none;stroke:#FFFFFF;stroke-width:10;stroke-miterlimit:10;stroke-dasharray:11.0015,11.0015;}
	.st75{fill:none;stroke:#FFFFFF;stroke-width:10;stroke-miterlimit:10;stroke-dasharray:11.3333,11.3333;}
	.st76{fill:none;stroke:#FFFFFF;stroke-width:10;stroke-miterlimit:10;stroke-dasharray:12.0322,12.0322;}
	.st77{fill:none;stroke:#FFFFFF;stroke-width:10;stroke-miterlimit:10;stroke-dasharray:10.7265,10.7265;}
	.st78{fill:#565656;}
	.st79{fill:#1B1B1B;}
	.st80{fill:#4F8BD3;}
	.st81{fill:none;stroke:#919191;stroke-miterlimit:10;}
	.st82{fill:#FBFBFB;}
	.st83{fill:none;stroke:#FFFFFF;stroke-linecap:square;stroke-miterlimit:10;}
	.st84{fill:none;stroke:#FF0011;stroke-miterlimit:10;}
	.st85{fill:none;stroke:#FFFFFF;stroke-width:1.5;stroke-miterlimit:10;}
	.st86{fill:#DB4437;}
	.st87{fill:#3B5998;}
	.st88{fill:#1DA1F2;}
	.st89{fill:none;stroke:#444444;stroke-miterlimit:10;}
	.st90{opacity:0.6;clip-path:url(#SVGID_123_);fill:url(#SVGID_124_);}
	.st91{opacity:0.6;clip-path:url(#SVGID_128_);fill:url(#SVGID_129_);}
	.st92{display:none;}
	.st93{opacity:0.38;}
	.st94{opacity:0.25;}
	.st95{fill-rule:evenodd;clip-rule:evenodd;fill:#F2EA3B;}
	.st96{fill-rule:evenodd;clip-rule:evenodd;fill:#CB2528;}
</style>
<g id="Layer_6">
</g>
<g id="Layer_1">
</g>
<g id="img">
	<g>
		<g>
			<defs>
				<rect id="SVGID_17_" x="742.1" y="-165.9" width="1280" height="768"/>
			</defs>
			<clipPath id="SVGID_2_">
				<use xlink:href="#SVGID_17_"  style="overflow:visible;"/>
			</clipPath>
			<g style="clip-path:url(#SVGID_2_);">
				
					<image style="overflow:visible;" width="1900" height="754" xlink:href="2CFD1A3B.jpg"  transform="matrix(1.4311 0 0 1.4309 319.7491 -165.879)">
				</image>
			</g>
		</g>
	</g>
</g>
<g id="bullets">
</g>
<g id="txt">
	<g>
		<g>
			<path class="st42" d="M396.4,218.6c-2.3,0-4.4,2-4.5,4.2v1.1c0,0.6,0.1,0.8,0.5,0.8h8c0.5,0,0.5-0.3,0.5-0.9v-1.2
				C400.8,220.5,398.7,218.6,396.4,218.6z"/>
			<path class="st42" d="M400.7,192.6H295.3c-16.6,0-30.1,13.5-30.1,30.1c0,16.7,13.5,30.1,30.1,30.1h105.4
				c16.6,0,30.1-13.5,30.1-30.1C430.8,206.1,417.3,192.6,400.7,192.6z M320.3,237c0,0.3-0.1,0.5-0.5,0.5h-3.5
				c-0.4,0-0.5-0.1-0.5-0.5v-13.5c0-2.4-1.9-4.4-4-4.4c-2,0-4,2.1-4,4.4V237c0,0.3-0.1,0.5-0.5,0.5h-3.5c-0.3,0-0.5-0.1-0.5-0.5
				v-13.5c0-0.3,0-0.6-0.1-0.8v-0.1c-0.4-2-2.2-3.5-3.9-3.5c-2,0-4,2-4,4.4V237c0,0.3-0.2,0.5-0.5,0.5h-3.5c-0.4,0-0.5-0.1-0.5-0.5
				v-13.5c0-4.9,3.5-8.5,8.5-8.5c1.5,0,2.6,0.3,3.6,0.8c0,0,0.6,0.3,0.8,0.4c1.2,0.7,1.6,1.3,1.8,1.3c0.3,0,0.8-0.6,1.9-1.4
				c1.2-0.7,2.6-1.1,4.3-1.1c4.9,0,8.4,3.5,8.4,8.5V237z M342.7,229.6c0,5.1-3.5,8.5-9,8.5c-5.4,0-9-3.4-9-8.5v-6.5
				c0-5.1,3.5-8.5,9-8.5c5.5,0,9,3.5,9,8.5V229.6z M364.5,229.1c0,2.6-1,4.8-2.7,6.3c0,0-0.1,0.1-0.1,0.1c-0.1,0.1-0.3,0.2-0.4,0.3
				c-0.7,0.6-1.6,1-2.6,1.3c-0.2,0-0.3,0.1-0.4,0.1c0,0-0.1,0-0.2,0.1c-0.7,0.2-1.5,0.3-2.3,0.3h-0.1c0,0-0.1,0-0.2,0
				c-1.9,0-3.6-0.2-5-0.7c-2.5-1-4-2.9-4-6.1v-24c0-0.3,0.2-0.5,0.5-0.5h3.5c0.4,0,0.5,0.1,0.5,0.5v9.6c0,0.4,0.2,0.6,0.4,0.6
				c0.4,0,1.9-1.7,4.8-1.7c4.6,0,8.3,3.6,8.3,8.5V229.1z M372.9,237c0,0.3-0.2,0.5-0.5,0.5H369c-0.4,0-0.5-0.1-0.5-0.5v-21.4
				c0-0.3,0.2-0.5,0.5-0.5h3.5c0.3,0,0.5,0.2,0.5,0.5V237z M370.7,211.1c-1.5,0-2.8-1.1-2.8-2.7c0-1.5,1.2-2.7,2.8-2.7
				c1.6,0,2.8,1.2,2.8,2.7C373.5,209.9,372.3,211.1,370.7,211.1z M382.7,237c0,0.3-0.1,0.5-0.5,0.5h-3.5c-0.3,0-0.5-0.1-0.5-0.5
				v-30.4c0-0.3,0.2-0.5,0.5-0.5h3.5c0.3,0,0.5,0.1,0.5,0.5V237z M405.4,226.9c0,0.4-0.1,1.2-0.7,1.2h-12.2c-0.4,0-0.5,0.1-0.5,0.5
				v1c0,2.4,1.9,4.4,4.3,4.5c0,0,0.1,0,0.1,0h0.1h0.1c0.7,0,2-0.2,3.1-1c0,0,0.2-0.2,0.7,0c0.6,0.3,3.1,1.5,3.1,1.5s0.4,0.2,0.1,0.7
				c-0.2,0.2-0.4,0.5-0.7,0.7c-1.5,1.4-3.6,2.1-6.3,2.1c-5.4,0-9-3.4-9-8.5v-6.5c0-4.6,4-8.5,9-8.5c5,0,9,3.9,9,8.5V226.9z"/>
			<path class="st42" d="M355.5,219.1c-2.5,0-4.5,2.1-4.5,4.5v3.4v3.7c0,2.4,1.9,2.8,4.3,2.9h0.1h0c0,0,0.1,0,0.1,0l0,0h0.1
				c0.3,0,0.5,0,0.8-0.1l0,0c2.1-0.4,3.6-2.2,3.6-4.4v-5.5C360,221.1,358,219.1,355.5,219.1z"/>
			<path class="st42" d="M333.7,218.6c-2.5,0-4.5,2.1-4.5,4.5v6.5c0,2.4,2,4.5,4.5,4.5c2.5,0,4.5-2,4.5-4.5v-6.5
				C338.1,220.7,336.1,218.6,333.7,218.6z"/>
		</g>
		<path class="st36" d="M429.4,189.8c2.7,0,4.9,2.2,4.9,5c0,2.8-2.2,5-4.9,5c-2.7,0-5-2.2-5-5C424.4,192,426.7,189.8,429.4,189.8
			 M429.4,190.6c-2.2,0-4,1.9-4,4.2c0,2.4,1.8,4.3,4,4.3c2.2,0,4-1.9,4-4.3C433.4,192.4,431.6,190.6,429.4,190.6 M428.5,197.7h-0.9
			v-5.6c0.4-0.1,0.9-0.1,1.6-0.1c0.8,0,1.4,0.2,1.7,0.5c0.4,0.2,0.5,0.6,0.5,1.1c0,0.7-0.5,1.2-1.1,1.4v0c0.5,0.1,0.8,0.6,0.9,1.4
			c0.2,0.9,0.3,1.2,0.4,1.4h-1c-0.1-0.2-0.2-0.7-0.3-1.4c-0.2-0.7-0.5-1-1.2-1h-0.6V197.7z M428.5,194.6h0.6c0.7,0,1.4-0.3,1.4-1
			c0-0.5-0.4-1-1.4-1c-0.3,0-0.5,0-0.6,0V194.6z"/>
		<g>
			<path class="st36" d="M138.2,11c-25,37.8-58.6,161.9-66.7,228c-1.6,12.8-2.6,13.6-4.7-0.4c-1.9-12.5-15-89.4-16.1-95.2
				c-2.5-13.7-15.6-12.9-20.2-2C26,152.4,7.4,209.6,5.2,217c-2.3,7.4,12.2,12.9,15.9,3.5c3.7-9.4,11.4-29.2,12.9-32.6
				c1.5-3.5,4.7-3.8,5.1,0.9c0.3,4.7,19.2,120.6,21.7,131.9c2,9.2,16.4,14.1,18.1-3.7c8.2-86.9,39-244.3,76.6-279.7
				C180,14.2,150.7-7.9,138.2,11z"/>
			<path class="st36" d="M114.1,200.4c-1.2,17.6-2.4,50.5-3.2,55.8c-1.4,9.6,17.4,5.5,18.6-7.5c1.3-13.1,5.4-40.9,6.1-54.2
				C136.9,170.2,115.1,185.5,114.1,200.4z"/>
			<path class="st36" d="M143.8,141.6c-0.1-5.1-5.1-5.6-11.2-1.7c-6.2,3.9-8.2,10.4-8.4,12.9c-0.3,4.7,5.2,6.9,12.1,2.1
				C143.2,150.2,143.9,146.7,143.8,141.6z"/>
			<path class="st36" d="M151.7,181.1c-0.9,20.5-3.3,40.8-3.2,52.4c0.1,12.6,19.6,8.4,20.6-8.9c1.6-30-0.9-38.9,18.2-51.2
				c6.2-4,2.1-17.5-4.9-14.2c-17.5,8.3-14.5,3.5-22,7.4C156.3,168.8,152.1,173,151.7,181.1z"/>
			<path class="st36" d="M393.1,132.8c-6.5,3.2-12.9,6.4-19.2,9.6c-5.5,2.1-9.1-0.4-9.3-9.9c-0.2-10.6,0.9-33.1,1.1-40.2
				c0.1-7-4.1-14.2-12.8-11.8c-11.5,3.1-15.5,12.9-20.8,14.3c-5.3,1.5-7.9-2-17.7,2.1c-3.5,1.5-7.6,6.7-8.5,15.9
				c-0.7,7.1-1.6,37.9-2.2,46.3c-0.8,13,18.7,7.3,19.4-4.5c0.9-14.6-1.3-44.3,14-52.8c5.5-3.1,9.9-3.2,9.7,3.4
				c-0.2,6.7-1.2,34.9-1.5,38.5c-0.7,9.7,7.6,9.2,4.9,10.8c0,0-0.1,0-0.1,0c-37.2,19.8-70,39.2-99.1,58.3
				c1.1-31.8,2.5-62.4,4.4-77.1c1.7-14.2-17-7.6-17.8,1.2c-1.3,13.1-4.7,47.7-5.4,52.9c-1.6,12.1-17.6,19.3-17.8,3.4
				c-0.1-13,1.8-32.6,10.1-41.2c8.3-8.6,6.5-20.4-9.2-10.6c-19.8,12.3-19.7,44.9-19.5,65.5c0.2,22.6,26.5,14.2,33.5,8.9
				c3-2.2,3.2-1.7,3,2.5c0,0.8,0,3.3,0,7.1c-55.3,37.9-97.1,74.3-132.6,109.2c-12.7,12.5,6.1,26,18.5,11.9
				c27-30.8,67.1-67,114.2-101.3c0,27.4-0.1,69.3-2,96c-2.1,29.5,24.5,29.1,24.5,10.5c0-15.8-5.5-20.1-5.9-39
				c-0.2-9.2,0.3-43.6,1.4-80.3c36.9-25.5,77.3-49.3,118.5-68.3c18.4-8.5,20-5.5,29.1-10.8C419.5,141.4,405.7,126.6,393.1,132.8z"/>
			<path class="st36" d="M287.8,169.6c0.7-11.7,2.4-46.7,2.7-53.2c0.4-8.2-14.4-8.4-17.2,8.6c-2.3,13.7-4.2,43.1-5.3,52.1
				C266.4,190.7,287.1,181.9,287.8,169.6z"/>
			<path class="st36" d="M292.4,90.5c6.7-6,6.7-9.1,6.7-13.1c0-4-9-3.2-12.1-0.9c-3.2,2.4-6.8,4.8-7.5,10.4
				C279,91.4,285.7,96.6,292.4,90.5z"/>
		</g>
	</g>
</g>
<g id="desk">
</g>
<g id="guias" class="st92">
</g>
<g id="grid">
</g>
</svg>
